<svg xmlns="http://www.w3.org/2000/svg" viewBox="0 0 640 420" role="img" aria-label="墙面滑手示意"><rect width="640" height="420" fill="#f4f7f2"/><path d="M470 46v305" stroke="#93a89d" stroke-width="16"/><path d="M95 358h430" stroke="#93a89d" stroke-width="8" stroke-linecap="round"/><circle cx="320" cy="82" r="31" fill="#e5b187"/><path d="M320 114v185m0-150l-73 70m73-70l73 70m-73 80l-55 48m55-48l55 48" fill="none" stroke="#183f3b" stroke-width="23" stroke-linecap="round" stroke-linejoin="round"/><path d="M247 206v-122m146 122v-122" stroke="#183f3b" stroke-width="20" stroke-linecap="round"/><path d="M247 78v-38m0 0l-12 15m12-15l12 15m134 23v-38m0 0l-12 15m12-15l12 15" stroke="#e36b4b" stroke-width="7" fill="none" stroke-linecap="round"/><text x="320" y="400" text-anchor="middle" font-family="Arial, sans-serif" font-size="23" fill="#36544d">背部贴墙，双手在舒适范围内向上滑</text></svg>
